<svg version="1.1" id="Layer_1" xmlns="http://www.w3.org/2000/svg" xmlns:xlink="http://www.w3.org/1999/xlink" x="0px" y="0px"
	 width="100%" viewBox="0 0 325 322" enable-background="new 0 0 325 322" xml:space="preserve">
<path fill="#3A6FCD" opacity="1.000000" stroke="none" 
	d="
M236.770035,79.232712 
	C278.953125,122.209061 285.003784,191.384628 251.166855,241.434158 
	C228.610809,274.797699 197.076721,293.804443 157.466537,299.666107 
	C151.726929,300.515442 145.840210,300.616913 140.020203,300.635223 
	C110.534950,300.728027 81.048775,300.597900 51.564251,300.771973 
	C47.385319,300.796661 46.231239,299.597321 46.275551,295.456635 
	C46.482323,276.134979 46.361107,256.809875 46.378490,237.486038 
	C46.379944,235.866379 46.539639,234.246872 46.651184,232.150482 
	C48.838505,232.150482 50.628563,232.151337 52.418621,232.150330 
	C82.567749,232.133347 112.718758,232.319794 142.865494,232.042511 
	C173.845047,231.757553 200.822830,204.063995 202.289703,173.096741 
	C203.734482,142.595993 184.688080,117.894768 160.134216,109.612206 
	C153.590012,107.404709 146.562637,106.629547 139.342712,105.109535 
	C139.342712,83.309509 139.342712,60.909863 139.342712,37.757767 
	C177.762756,37.669968 209.918915,51.664509 236.770035,79.232712 
z"/>
</svg>